<?xml version="1.0" encoding="utf-8"?>
<!-- Generator: Adobe Illustrator 26.3.1, SVG Export Plug-In . SVG Version: 6.00 Build 0)  -->
<svg version="1.1" id="Layer_1" xmlns="http://www.w3.org/2000/svg" xmlns:xlink="http://www.w3.org/1999/xlink" x="0px" y="0px"
	 viewBox="0 0 471.2569885 371.7781982" style="enable-background:new 0 0 471.2569885 371.7781982;" xml:space="preserve">
<style type="text/css">
	.st0{fill:#FFFFFF;}
	.st1{fill:#475B4F;}
	.st2{fill:#465A4E;}
	.st3{fill:#748F6F;}
	.st4{fill:#859E7F;}
	.st5{fill:#5B785A;}
	.st6{fill:#6A8465;}
</style>
<path class="st0" d="M243.0462799,349.4216919c1.5642395-0.0257874,2.8114014-1.3147583,2.7856445-2.8789978
	c-0.0257874-1.5642395-1.3147583-2.8114014-2.8790283-2.7856445c-1.5544434,0.0256348-2.7977753,1.2993164-2.7859192,2.8539429
	C240.2120819,348.1708984,241.485733,349.4142151,243.0462799,349.4216919z"/>
<path class="st0" d="M242.975296,351.0365906c-2.0249329,0.0382385-3.6680603,1.650177-3.7451019,3.6740112
	c-0.0656128,2.0938416,1.5785828,3.8444214,3.6724396,3.9100342c2.0938416,0.0656433,3.8444214-1.5785828,3.9100342-3.6724243
	s-1.5785828-3.8444214-3.6724243-3.9100342C243.0852814,351.036438,243.0302887,351.0359192,242.975296,351.0365906z"/>
<path class="st0" d="M226.5258942,343.7798767c-2.4691315-0.1472168-4.5901031,1.7350769-4.7373047,4.2042236
	c-0.1472168,2.4691162,1.7350769,4.5900879,4.2042084,4.7373047s4.5901031-1.7350769,4.7373047-4.2042236
	c0.0062408-0.1045837,0.0088043-0.2093201,0.0076904-0.3140869c0.080307-2.3614807-1.7689514-4.3409119-4.1304321-4.4212341
	C226.5802155,343.7809448,226.5530548,343.7802734,226.5258942,343.7798767z"/>
<path class="st0" d="M235.6284943,319.7780762c-26.5648956,0-48.1000061,11.640686-48.1000061,26s21.5350952,26,48.1000061,26
	s48.1000214-11.6405029,48.1000214-26S262.1932983,319.7780762,235.6284943,319.7780762z M247.3074799,335.2460632h0.9635925
	v1.6400146h-0.9632874L247.3074799,335.2460632z M239.4947815,327.256073h5.3740082v0.8735046h-2.2000122v8.7572021h-0.9622955
	v-8.7572021h-2.2116852L239.4947815,327.256073z M222.9857788,327.256073h5.2700043v0.8735046h-4.3079834v3.4606934h4.1640015
	v0.8709106h-4.1640015v3.5519104h4.3074951v0.8734131h-5.2700043L222.9857788,327.256073z M211.4565887,359.8140869h-1.7315979
	v-15.7522888h-2.9732971v-1.5686951h4.704895V359.8140869z M230.3177948,353.5630798l-4.2377014,6.2511902h-1.9651947
	l4.0027924-5.8753967l-0.0469055-0.0228882c-0.5064697,0.2596741-1.0700378,0.388031-1.6390076,0.373291
	c-3.3358002-0.0001526-6.0398865-2.7044678-6.0397339-6.0402527c0.0001373-3.3358154,2.7044678-6.0398865,6.0402679-6.0397339
	c3.3357849,0.0001221,6.0398712,2.7044373,6.0397339,6.0402527c0,0.0395508-0.0003967,0.079071-0.0011749,0.1186218
	C232.4710999,349.5384827,232.3302917,350.6150818,230.3177948,353.5630798z M234.2463989,337.0541687
	c-1.5497284,0.0874023-2.8768921-1.098053-2.9642944-2.6477966c-0.0040131-0.0711975-0.0053101-0.1425171-0.0039062-0.2138062
	h0.9635925c-0.0105591,1.0891113,0.8637848,1.9805603,1.9528961,1.9911194
	c1.0733337,0.0104065,1.9578705-0.8395386,1.9903107-1.9124146c0-1.0409851-0.6894073-1.6275024-1.9526062-1.993103
	c-1.3786926-0.3884888-2.6925964-0.8456116-2.6925964-2.6026001c0.0558624-1.4837036,1.3039398-2.6412048,2.7876434-2.5853577
	c1.4161377,0.0533447,2.547699,1.1967773,2.5862579,2.6133728h-0.9635925
	c0.0053101-0.9497986-0.7540588-1.7272949-1.7037048-1.7444153c-0.9324799-0.0304565-1.713089,0.7008057-1.7435303,1.6332703
	c-0.0004883,0.0150146-0.0007782,0.0300293-0.0008698,0.0450439c0,0.8200073,0.4951935,1.3280029,1.8612061,1.6784058
	c2.0820007,0.5332031,2.7841034,1.6148071,2.7841034,2.9147949c-0.0128632,1.5723572-1.2979431,2.8365784-2.8703003,2.8237
	c-0.0101318-0.000061-0.0202789-0.0002136-0.0304108-0.0003967L234.2463989,337.0541687z M243.046402,360.1189575
	c-2.9997101,0.0427246-5.474411-2.3379822-5.5478058-5.3370972c-0.0168915-1.9981995,1.1491852-3.8173828,2.9718933-4.6364136
	c-1.2345734-0.7219849-2.0056152-2.0333252-2.0363007-3.4631958c0.0514526-2.5337524,2.1471558-4.546051,4.6809082-4.4945984
	c2.4790039,0.0503235,4.4696655,2.0608826,4.4953003,4.5402832c-0.0296021,1.4245911-0.8141174,2.7260742-2.0599976,3.417511
	c1.8269348,0.8178711,3.0010071,2.6347656,2.9960022,4.6364136c-0.0597229,2.9862061-2.5134583,5.3671265-5.5001221,5.3369141
	L243.046402,360.1189575z M264.5053101,344.0619507l-7.0928955,15.7522888h-1.8256073l7.1400299-15.7522888h-8.2390289v-1.5688477
	h10.017807L264.5053101,344.0619507z"/>
<path class="st0" d="M67.1909027,223.3265991H17.5918999l-10.872201,24.0665131h-6.7199993l39.3372002-85.5148926h6.2308998
	l39.3368034,85.5148926h-6.7185974L67.1909027,223.3265991z M64.8694,218.0744019L42.3918991,168.720108l-22.3567009,49.3542938
	H64.8694z"/>
<path class="st0" d="M152.0336914,205.247406l-19.1800079,19.6674957v22.4782104h-6.2299881v-85.5146027h6.2299881v54.9745941
	l53.3858948-54.9741974h7.5747986l-37.6271057,38.8488007l40.1921234,46.6654053h-7.5747986L152.0336914,205.247406z"/>
<path class="st0" d="M296.4324951,223.3265991h-49.5990143l-10.8720856,24.0665131h-6.7200012l39.3372192-85.5148926h6.230011
	l39.3375854,85.5148926h-6.7184143L296.4324951,223.3265991z M294.1109924,218.0744019L271.633606,168.720108
	l-22.3567963,49.3542938H294.1109924z"/>
<path class="st0" d="M412.2378235,247.3931122l-20.401886-28.5868988c-2.7521362,0.3896179-5.5273438,0.5938721-8.3068848,0.6114044
	h-24.4339294v27.9754944h-6.230011v-85.5146027h30.6636963c10.7502747,0,19.1793823,2.5450745,25.2874146,7.6351929
	c6.1080322,5.0901337,9.162384,12.1552582,9.1630859,21.1954041c0,6.7615356-1.730957,12.442215-5.1929016,17.0420074
	c-3.4620056,4.6024017-8.4094238,7.8397064-14.8423157,9.7118988l21.3786926,29.9300079L412.2378235,247.3931122z
	 M383.5290222,213.9206085c9.1199951,0,16.083313-2.0159912,20.8899841-6.0480042
	c4.8043213-4.0305328,7.2066956-9.7518005,7.2070923-17.1638031c-0.0000305-7.4100647-2.4023743-13.1313324-7.2070923-17.1638031
	c-4.8066711-4.031601-11.769989-6.0472412-20.8900146-6.0469055h-24.4338684v46.4225006L383.5290222,213.9206085z"/>
<path class="st0" d="M465.0267029,161.8785095h6.230011v85.5146027h-6.230011V161.8785095z"/>
<path class="st0" d="M114.7426987,283.5542908c-0.1562042-2.0674133-1.4432983-3.3544922-3.1981964-3.3544922
	c-1.7516403-0.0359497-3.2007828,1.3548889-3.2367401,3.1065369c-0.0006256,0.0305481-0.0008163,0.0610962-0.0005569,0.0916748
	c0,1.5606079,1.0917969,2.6524048,3.705101,3.5100098c5.1875,1.7167969,6.2010956,3.7832031,6.2010956,6.8251953
	c0,3.8999939-2.6132965,6.3965149-6.7080002,6.3965149c-3.510788,0.1106567-6.4465485-2.6456909-6.5572052-6.1564941
	c-0.0053864-0.1708069-0.0038834-0.3417969,0.004509-0.5125122v-0.156189h2.7300034
	c0.0390015,2.8475952,1.5214005,4.368103,3.822197,4.368103c2.4570007,0,3.9785004-1.3652039,3.9785004-3.8222046
	c0-2.0664062-1.3260956-3.1983032-3.7832031-4.0947876c-3.7441025-1.3652039-6.1230011-2.4179077-6.1230011-6.0838928
	c-0.0630798-3.2140198,2.4912567-5.8706055,5.7052612-5.9336853c0.1262665-0.0025024,0.2525787-0.0008545,0.3787384,0.0048828
	c3.1492157-0.059845,5.7506866,2.4446106,5.8105164,5.593811c0.0013885,0.0726013,0.0013733,0.1452026-0.0000153,0.217804
	L114.7426987,283.5542908z"/>
<path class="st0" d="M149.3891907,299.6230774v-3.7441101h-0.0780945c-1.8760834,2.7262268-4.9990387,4.3242493-8.3076019,4.2510071
	c-6.1819458,0.1500244-11.3150177-4.7398376-11.4650269-10.9217834s4.7398376-11.3150024,10.9217834-11.4650269
	c0.1810608-0.0043945,0.3621826-0.0043945,0.5432434,0c3.3248749-0.1034546,6.4670105,1.5191345,8.3076019,4.2900085h0.0780945
	v-3.7442017h2.7299957v21.3341064H149.3891907z M149.5444946,288.9756775
	c0.0567627-4.7896729-3.7800293-8.7185059-8.5697021-8.7752686c-0.0034332-0.000061-0.0068665-0.0000916-0.0102997-0.0001221
	c-4.8251343-0.0872803-8.8074188,3.75354-8.8946838,8.5786438c-0.087265,4.8251343,3.7535248,8.8074341,8.5786591,8.8946838
	c4.8251343,0.0872803,8.8074188-3.7535095,8.8946838-8.5786438
	C149.543869,289.0552063,149.5443115,289.0154419,149.5444946,288.9756775z"/>
<path class="st0" d="M166.8208008,299.6230774v-28.8617859H169.5513v28.8617859H166.8208008z"/>
<path class="st0" d="M183.4731903,289.0923767c-0.0651245-6.1604614,4.8760986-11.2072754,11.0365448-11.2723999
	c6.1604614-0.0651245,11.2072754,4.8760986,11.2724152,11.0365601c0.0651245,6.1604309-4.8761139,11.2072754-11.0365601,11.2723999
	c-0.052063,0.0005493-0.1041412,0.0007324-0.1562042,0.0005493
	C188.5188141,300.0384521,183.6075592,295.1621399,183.4731903,289.0923767z M203.0522919,288.8188782
	c-0.2335052-4.6502991-4.1925964-8.2308044-8.8428802-7.9973145c-4.6502838,0.2335205-8.2308044,4.1925964-7.9972992,8.8428955
	c0.225174,4.4847107,3.9259949,8.0059204,8.4163818,8.0079041c4.7432861-0.0895386,8.5158844-4.0072937,8.4263611-8.7505798
	C203.0541992,288.8874817,203.0533447,288.8531799,203.0522919,288.8188782z"/>
<path class="st0" d="M233.6949005,299.6230774v-11.8959961c0-4.7969055-2.8858032-7.5273132-6.6300049-7.5273132
	c-4.1338043,0-6.6690063,3.1592102-6.6690063,7.3320007v12.0913086h-2.7299957v-21.3340149h2.7299957v2.7304993h0.0771942
	c1.4890137-2.1306763,3.9547424-3.3635864,6.5527039-3.2763977c5.8899994,0,9.3993988,4.0567017,9.3993988,9.9844055v11.8955078
	H233.6949005z"/>
<path class="st0" d="M295.5805969,283.5542908c-0.156189-2.0674133-1.4432983-3.3544922-3.1982117-3.3544922
	c-1.7516479-0.0359497-3.2007751,1.3548584-3.2367554,3.1065063c-0.0006104,0.0305786-0.0007935,0.0611267-0.0005493,0.0917053
	c0,1.5606079,1.0917969,2.6524048,3.7049866,3.5100098c5.1875,1.7167969,6.2012024,3.7832031,6.2012024,6.8251953
	c0,3.8999939-2.6133118,6.3965149-6.7080078,6.3965149c-3.5107727,0.1106567-6.4465637-2.6456909-6.5572205-6.1564636
	c-0.0053711-0.1708374-0.0038757-0.3418274,0.0045166-0.5125427v-0.156189h2.730011
	c0.039093,2.8475952,1.5215149,4.368103,3.8222961,4.368103c2.4570007,0,3.9784851-1.3652039,3.9784851-3.8222046
	c0-2.0664062-1.3261108-3.1983032-3.7832031-4.0947876c-3.7441101-1.3652039-6.1229858-2.4179077-6.1229858-6.0838928
	c-0.0630798-3.2140198,2.4912415-5.8706055,5.7052612-5.9336853c0.1262817-0.0025024,0.252594-0.0008545,0.3787537,0.0048828
	c3.149231-0.0595703,5.7504578,2.4450989,5.8100281,5.5943298c0.0013733,0.0724182,0.0013733,0.1448669-0.0000305,0.2172852
	L295.5805969,283.5542908z"/>
<path class="st0" d="M312.2330017,307.1109009v-28.8223267h2.730011v3.7445068h0.0772095
	c1.8736572-2.7337036,4.993866-4.3449707,8.3075867-4.2900085c6.1819458-0.1500244,11.3150024,4.7398376,11.4650269,10.9217834
	s-4.7398376,11.3150024-10.9217834,11.4650269c-0.1810608,0.0043945-0.3621826,0.0043945-0.5432434,0
	c-3.3039856,0.0534058-6.4180908-1.5401001-8.3075867-4.2510071h-0.0772095v11.2323914L312.2330017,307.1109009z
	 M323.3091125,280.1997986c-4.7604065,0.0999146-8.5527039,4.0142212-8.5018921,8.7753906
	c0.0753784,4.7711487,4.0042419,8.5778198,8.7753906,8.5024414s8.5778198-4.0042419,8.5024414-8.7753906
	c-0.0753479-4.7711487-4.0042419-8.5778198-8.7753906-8.5024414
	C323.3094788,280.1997986,323.3092957,280.1997986,323.3091125,280.1997986z"/>
<path class="st0" d="M363.5747986,299.6230774v-3.7441101h-0.078186c-1.8760681,2.7262268-4.9990234,4.3242493-8.3075867,4.2510071
	c-6.1819458,0.1500244-11.3150024-4.7398376-11.4650269-10.9217834s4.7398376-11.3150024,10.9217834-11.4650269
	c0.1810608-0.0043945,0.3621826-0.0043945,0.5432434,0c3.3248596-0.1034546,6.4670105,1.5191345,8.3075867,4.2900085h0.078186
	v-3.7442017h2.7294006v21.3341064H363.5747986z M363.730011,288.9756775
	c0.0568237-4.7896423-3.7798767-8.7184448-8.569519-8.7752686c-0.003479-0.0000305-0.0069885-0.0000916-0.0104675-0.0001221
	c-4.8251343-0.0872803-8.8074341,3.7535095-8.8946838,8.5786438c-0.0872803,4.8251343,3.7535095,8.8074341,8.5786133,8.8946838
	c4.8251343,0.0872803,8.8074341-3.7535095,8.8947144-8.5786438
	C363.7294006,289.0552063,363.7298279,289.0154419,363.730011,288.9756775z"/>
<circle class="st0" cx="261.8140869" cy="288.5586853" r="3.8999939"/>
<path class="st1" d="M234.8138885,102.0097961c-4.6273041-2.4940948-9.113205-5.3089905-13.9080048-7.4229889
	c-15.1024933-6.658905-30.9315033-6.246109-46.8399963-4.1437073c-6.8061981,0.9000092-13.5733032,2.0980988-20.3535919,3.1900024
	c-0.6268616,0.1554413-1.2389069,0.365509-1.8291016,0.6278076c-3.2559052,0.5547028-6.5500031,0.8139038-9.8200073,1.2623901
	c-1.0772858,0.0835266-2.1582489,0.1093903-3.2382965,0.0774994c-7.949295,0.7460022-15.3910904,3.4080048-22.781395,6.177597
	c-7.7313995,2.8972015-15.3469009,6.1047058-23.0856018,8.9813995c-8.1529007,3.0308075-16.3916016,5.8307037-24.5928955,8.7312012
	c-0.9573975-1.7288971,0.5671005-2.2351074,1.5419998-2.7265015c3.451828-1.915802,7.1298904-3.3920135,10.9484024-4.3941956
	c2.9639969-0.7620087,5.2826004-2.8099976,8.0326004-4.0223083c7.2985001-3.2162933,14.6289978-6.3654022,21.5362015-10.4108887
	c7.0075989-4.1045074,14.8099976-5.7680969,22.7058945-7.1194c4.1052704-0.809433,7.9180603-2.7058411,11.0404968-5.4913025
	c6.0610962,0.25,11.4019928-1.9806061,16.5547943-4.8318024c2.9976044-1.6587982,5.971405-3.3600006,8.9557953-5.042099
	c0.9525146,0.9914703,2.2237701,1.61586,3.5906982,1.7635956c0.8609924,0.116806,2.1865997,0.1007996,2.0634003,1.6463013
	l-2.7382812,2.4707031c0.0378571,0.1615448,0.0756989,0.3230743,0.1134949,0.4846039
	c0.9260864-0.0545197,1.8487701-0.1565247,2.7644043-0.305603c16.7879028-3.5606079,33.8424072-3.9779968,50.8999939-4.2955017
	c14.2032623-0.3145752,28.322113-2.2755127,42.0735321-5.8435059c5.8017883-1.522171,11.6810303-2.7320709,17.6123962-3.6244965
	c5.9358826-0.82547,11.3440247-3.853672,15.1499939-8.4829979c4.8420105-5.5848999,9.6063843-11.216301,15.5025024-15.7927017
	c8.308136-6.4155006,17.9020081-10.9640121,28.1275024-13.3353996c4.8182983-0.1733017,10.7081909,3.7200012,12.5371094,8.2868004
	c1.0769043,2.6899986,0.4100037,4.5167007-2.5499878,6.6063004c1.8918152,1.9799995,4.1213989,3.6835022,4.9046936,6.4950027
	c0.7980957,2.865097-0.6509094,5.4700012-0.5775146,8.2251968c0.8561096-0.5149002,1.8991089-0.9737015,2.7799988,0.1010971
	c0.6992493,0.8248901,0.664093,2.0442657-0.0815125,2.8274994c-1.1900024,1.5834999-2.6166077,1.7088051-4.2694092,0.5625
	c-1.4787292,1.8412514-2.7222595,3.8596077-3.7018127,6.0083961c-2.6816101-0.123291-5.3637085-0.2380981-8.0450134-0.3712006
	c-6.918396-0.343689-13.8388062-0.655899-20.7528992-1.0739899c-1.6046448-0.0960693-3.1903076-0.3977661-4.7181091-0.8977051
	c-4.4988403-1.4629974-9.3886108-1.1342163-13.6510925,0.9179077c-0.4819946,0.1719055-0.976593,0.3062744-1.4793091,0.4019012
	c-2.8988953-1.550705-5.7571106-1.4065094-8.8611145-0.3531036c-4.2747498,1.5177612-8.6495667,2.7373505-13.0929871,3.6499939
	c-4.648407,0.8889008-8.734314,3.5821991-13.7894897,4.2342072c1.0210876,1.6392975,2.3093872,1.7428894,3.452301,2.0767975
	c0.8981018,0.2623901,1.9216919,0.0953979,2.6924133,0.7942963c2.5081482,0.5829315,5.0164185,1.1659241,7.5248108,1.7489929
	c1.1575928,1.552002,0.8521118,3.259201,0.5270081,4.9687042c-5.5325928-0.1500092-11.0725098-0.5584106-16.5960083-0.3990021
	c-12.9220123,0.373291-25.8356171,1.0320892-38.7539215,1.5440979c-2.9900055,0.1184998-5.9842072,0.1039886-8.9763031,0.1682892
	c-0.629364-0.0074768-1.2433929,0.1943207-1.7456055,0.5737c8.5164032,3.9178009,17.0328369,7.8355408,25.5493011,11.7532043
	c0.1849365,0.4202118-0.0057983,0.9107971-0.4260254,1.0957184c-0.0744324,0.0327606-0.1532593,0.0544128-0.2339783,0.0642853
	c-2.2756042,0.4879913-4.3518982,1.6026001-6.631897,2.053894
	C235.5100861,102.2355652,235.14328,102.169342,234.8138885,102.0097961z"/>
<path class="st2" d="M361.427002,102.6004028c-0.0841064-0.0169678-0.1461487-0.0885468-0.151001-0.1742096
	c-0.0827942-0.1806335-0.2338257-0.3210602-0.4200134-0.3905029l-0.5534973-0.5
	c-2.0389404-2.3911743-4.2366943-4.6422119-6.5783997-6.737793c-0.7632141-0.6309967-0.7080994-0.6977997-0.3192139-1.5658112
	c4.1372986,0.2089081,8.276001,0.3917084,12.411499,0.6324005c6.2593384,0.3757172,12.4520264,1.4923401,18.4483948,3.3265076
	c6.8829041,2.0816956,14.0107117,3.3610992,20.8747864,5.4944916c13.7249451,4.1524506,26.4804077,11.0088043,37.5155029,20.1654053
	c0.4091797,0.4023285,0.7835388,0.8385925,1.1191101,1.3040924c-0.0599976,0.1062012-0.1590881,0.2599945-0.2331848,0.2382965
	c-2.8620911-0.8175049-5.2900085,1.0274963-7.9776917,1.297699c-3.0560913,0.3072968-4.6774902-0.5661926-6.115387-3.2966003
	c-0.5751038-1.0921021-0.7583923-2.4790039-2.0979919-3.2368927c-0.5783997,0.888504-0.4352112,1.8650055-0.6543884,2.7416992
	c-0.1928711,0.7379761-0.4897461,1.4447632-0.8817139,2.0991058c-1.1025085,1.8990936-0.8088989,2.9490051,1.2449036,3.8766022
	c1.9743958,0.8914948,3.7355042,1.9416962,4.6549072,4.0406036c0.5802307,1.5425262,0.8080139,3.1953278,0.666687,4.8372955
	c-0.1159363,1.1854706,0.4414062,2.3361053,1.443512,2.9799957c1.2616577,0.9584503,2.4549561,2.0037231,3.5711975,3.1282043
	c0.6560974,0.6092987,1.3208008,1.259201,0.9370117,2.2713013c-0.3713074,0.9785004-1.2750854,0.8755035-2.0928955,0.8999939
	c-7.1522827,0.0791931-14.2798462-0.8527527-21.1713257-2.7681885c-13.782959-3.8052826-26.5556946-10.606842-37.406189-19.9190063
	c-5.1199951-4.2975006-8.764801-9.8538971-12.4227905-15.3674011c-0.9700012-1.4623108-1.9234009-2.936203-2.8841858-4.4049072
	c-0.0622864-0.2016907-0.2392883-0.2935028-0.3919067-0.4086914l-0.0151978-0.0232086
	C361.6672058,103.0630951,361.6559143,102.7272949,361.427002,102.6004028z"/>
<path class="st2" d="M202.3127899,33.9672012c3.9219971-3.1895294,7.8439941-6.378933,11.7660065-9.5681992
	c1.6947937-0.8333015,1.6842957,0.5990982,1.7767029,1.4900017c0.2272949,2.1899986,0.5507965,4.3684006,0.7516022,6.5581017
	c0.1802979,2.3589401,1.1015778,4.6005363,2.6322021,6.4044991c0.997406,1.1792984,1.774704,2.5200005,2.7451935,3.7132988
	c0.5565033,0.6842003,1.3899994,1.4500008,2.2411041,0.7605019c0.9837036-0.797699,0.1168976-1.5960007-0.5018005-2.1920013
	c-1.0018005-0.9651985-1.9848022-1.9500008-0.9673004-3.3899994c0.872345-1.3606453,2.5950317-1.8995819,4.0872955-1.2787018
	c1.1128998,0.3782005,2.2409973,0.6959,3.3636017,1.0381012c3.4517365,1.0256577,5.418457,4.655304,4.392807,8.1070404
	c-0.1512299,0.5089111-0.3640442,0.997448-0.6337128,1.4547577c-1.1546631,1.8968887-2.8826752,3.3774033-4.9342041,4.2275009
	c-2.7196045,1.284523-5.2714233,2.897728-7.5982971,4.8034973c-2.9179993,2.3671036-6.5182037,3.6384964-9.6900024,5.6192017
	c-1.309967,0.6609268-2.4934082,1.5472107-3.4962006,2.6182976c-4.2545013,0.8014069-8.5050964,1.6242065-12.7653961,2.3937988
	c-1.7037964,0.3078003-3.4284973,0.4981079-5.1437073,0.7420044c-0.131897-0.063797-0.3041992-0.1175995-0.3594055-0.2350006
	c-1.3549042-2.8809967-3.5130005-3.0951996-6.1333008-1.8912964c-0.4018555,0.2030029-0.8839874,0.1610107-1.2447052-0.1083984
	c0.7424011-3.260006,1.429306-6.5336037,2.2592926-9.7709999c0.3632355-1.0195541,0.8244324-2.0015106,1.3771057-2.9320984
	c0.3674011-0.0397415,0.7146149-0.1881638,0.9972076-0.4263c4.2608948-3.6243973,9.1186066-6.6758003,11.4575958-12.1317978
	C199.6177979,37.8130989,201.2182922,36.0377007,202.3127899,33.9672012z"/>
<path class="st3" d="M371.8878174,25.0630989c9.9638062-2.1618004,20.0371094-2.6775017,30.2253113-2.725399
	c10.2956238,0.0692863,20.5494995,1.3166389,30.5614929,3.717701c2.56604,0.5749702,5.044342,1.4881172,7.3699951,2.7154999
	c2.6460876,1.4146004,2.8821106,3.0723991,0.5307922,4.8623009c-3.806488,2.9310875-7.8166199,5.5877876-12,7.9500008
	c-9.0585938,5.0442009-18.1799927,9.9981003-27.4753113,14.5860977c-5.6958923,2.8117981-11.7600098,4.8770981-17.6590881,7.2777023
	c-2.0270996-0.3458023-4.0161133,0.3899994-6.0336914,0.2173996c-0.9482117-0.0811996-2.1734009,0.2031021-2.2145996-1.3746033
	c1.2121887-1.0568695,2.5387878-1.9748154,3.9550781-2.736702c2.954895-1.7772064,5.815033-3.7074356,8.5686951-5.7827988
	c4.0913086-3.1472015,9.0180054-4.5009995,13.6984863-6.3699989c4.9588623-1.8635941,8.7689514-5.9274979,10.3092957-10.9961014
	c0.2947388-0.6916008,0.1704102-1.4906311-0.3204956-2.0600014c-2.0991211-1.0770874-4.5077209-1.3897858-6.8122864-0.8843994
	c-3.2608948,0.4944-6.5549011,0.6674995-9.815094,1.1430016c-1.164856,0.1263885-2.3429565,0.0422173-3.4779968-0.2485008
	c-4.9180908-1.1543503-9.6741028-2.9140053-14.1592102-5.2387009c-1.1900024-0.5831985-2.4736023-0.9099998-3.6846008-1.4221001
	C372.3316956,27.217701,371.3271179,26.5830994,371.8878174,25.0630989z"/>
<path class="st4" d="M260.1560059,4.4337997c11.21521-1.9342003,22.3258057-4.6209002,33.8300171-4.4235992
	c2.5037231-0.0115871,4.9063721,0.9867706,6.6646118,2.7693005c-1.3999939,3.7073002-30.5299988,29.5163021-40.3362122,35.7462006
	c-0.4487915,0.0009995-0.9361877,0.1907997-1.2932129-0.2630005c-0.7094421-2.0882874-0.7429199-4.3470192-0.0956116-6.4553986
	c0.6106873-2.4673996,1.3756104-5.1367989,3.7900085-6.7426987c0.8500671-0.5288391,1.2180176-1.5776939,0.884613-2.521698
	c-0.545105-1.8977013-0.8858032-3.8791008-2.0499878-5.5440979c-1.3343811-1.8764668-1.8924561-4.1958141-1.5577087-6.4738998
	C260.2863159,8.508028,260.341217,6.4635334,260.1560059,4.4337997z"/>
<path class="st5" d="M411.8039246,33.8246002c0.144104,1.027401,0.6684875,2.1837006,0.3710022,3.0611992
	c-1.7546082,5.6897202-6.3289795,10.0660439-12.0907288,11.5672989
	c-7.3247986,2.1444016-13.2929993,6.7567978-19.5181885,10.9020004c-1.6766968,1.1164017-3.5054932,2.0045013-5.2645874,2.9974976
	c-1.0014038,1.2753983-2.2600098,0.8230972-3.3969116,0.3768005c-2.4034119-0.9431992-4.3713989-0.7937012-5.8634949,1.6230049
	c-0.848999,1.3751984-2.3146057,1.6638031-3.8526917,1.621994c-2.39151-0.0647888-4.3117065,0.6481018-5.0957947,3.1737976
	c-1.0698853,0.0341949-2.1398621,0.068161-3.2099915,0.1018982c-0.1239929-2.3833923,1.9013977-5.1685944,2.9240112-7.2951927
	c1.3699951-2.8473969,2.7713013-5.2860031,2.5538025-8.586998c-0.0732422-1.6794434-0.6221924-3.3035126-1.5828857-4.6829987
	c-0.3143005-0.435997-3.8920898-3.8260002-4.2399902-3.3167992c0.2911987-0.4257011,0.4171143-0.8125992,0.678894-0.9625015
	c3.5700073-2.0441017,4.2525024-4.8721008,1.3395081-7.964901c-2.2406311-2.1711578-4.7175598-4.0843353-7.3843994-5.703701
	c-0.8599854-0.5744019-2.2065125-0.4206009-3.3306885-0.5999985l6.3446045-1.8274002
	c2.8521118,0.8216019,4.9700012,2.7913017,7.1128845,4.671299c1.7116699,1.497139,3.6547852,2.7068062,5.7536926,3.5819016
	c2.7409668,1.0671883,5.3119202,2.5278473,7.631897,4.3359985c1.7312927,1.4329987,3.8414917,1.7841988,5.9350891,2.1278992
	c2.5788879,0.4230995,5.1442871,0.6744995,5.964386,3.8800011c0.2349854,0.9187012,1.2413025,0.8740997,1.75,0.1610985
	c3.2257996-4.5206985,7.9190063-4.4606018,12.6948853-4.1581993c1.2445374,0.0866318,2.4931641,0.0975533,3.7390137,0.0326996
	c3.3800049-0.1957016,4.1705017-0.9478989,4.5440063-4.3564987
	C406.6939087,35.0900002,408.3760071,33.6319008,411.8039246,33.8246002z"/>
<path class="st5" d="M436.2389221,146.0330963c1.9844055-0.5263977,2.8240051-1.2660065,0.5820007-3.0886993
	c-1.3482666-1.0219574-2.6324768-2.1257629-3.8453979-3.3052063c-0.5508423-0.6817932-0.9024353-1.5026398-1.0158997-2.3717957
	c-0.3070984-1.697998-0.197113-3.5-0.6900024-5.1291962c-0.6365051-2.103302-2.5119934-3.111496-4.4755859-3.8636017
	c-2.269989-0.8699951-2.5570068-2.305603-1.4516907-4.4618988c0.7290955-1.7726593,1.2970886-3.6073608,1.697113-5.4819031
	c1.8226013,0.3251953,1.961792,2.1759033,2.6700134,3.4499969c1.9205017,3.4530029,4.3752136,4.6475983,8.0314026,2.9862061
	c1.8778687-0.9022064,4.0123596-1.1184082,6.0329895-0.6110992c2.6582947,2.4114075,5.3548889,4.7823029,7.966095,7.2436066
	c4.0763855,3.8426971,7.8694153,7.9282074,10.4685974,12.9700012c0.1588135,0.3079987,0.3522949,0.6016998,0.4790039,0.9219055
	c0.0947571,0.3063812,0.1676636,0.6190948,0.2181091,0.9358063c-3.3933105,2.1013947-6.9599915,1.3721008-10.5116882,0.8186035
	c0.2000122-1.5034027,1.2331848-1.4851074,2.3486938-1.2615051c0.9075928,0.1820068,1.7507935,0.2700043,2.160614-0.8162994
	c-1.6117859-1.537796-1.6411133-1.5567017-0.3793945-3.5075989c0.4695129-0.7256012,0.1400146-1.1941071-0.2676086-1.7169952
	c-0.464447-0.8443298-1.384613-1.3336792-2.3442993-1.2467041c-0.7715149,0.1473999-0.8385925,0.9600067-0.7900085,1.5845947
	c0.2016907,1.3605499-0.4082336,2.7138214-1.5611877,3.4638062c-0.5869141,0.4454346-0.7781677,1.243042-0.4570923,1.9062042
	c0.1629028,0.4766998,0.5921021,0.9087067,0.3033142,1.4806061L436.2389221,146.0330963z"/>
<path class="st6" d="M411.8039246,33.8246002c-3.3822937,0.5248985-5.1311035,2.2793007-5.0931091,5.9217987
	c0.0252991,2.4034004-1.4620972,3.6049004-3.9599915,3.6907997c-2.6944885,0.0926018-5.3999939,0.1199989-8.0917053-0.0107002
	c-3.7000122-0.1800003-6.6960144,0.9029999-8.8356018,4.0873985c-0.4749756,0.4783325-1.1418762,0.7144012-1.8120117,0.6414032
	c-0.4599915-0.058403-1.218811-0.8008003-1.1881104-1.1871986c0.171814-2.1753998-1.4836121-2.5164986-2.8923035-2.9900017
	c-0.9999084-0.2025452-2.0100098-0.3510284-3.0259094-0.4448013c-2.452179-0.4067268-4.7552795-1.4478569-6.680603-3.0200005
	c-1.7497864-1.4688225-3.7737427-2.5757141-5.9544983-3.2565002c-3.4411926-1.0934982-5.8023987-3.5870018-8.519989-5.6467018
	c-1.4960938-1.1335983-3.0414124-2.202301-4.5646057-3.2999992c6.9006653-1.0821342,13.8014221-2.1643333,20.7022095-3.2466011
	c0.6138916,0.7328987,1.0823975,1.7643013,1.8671875,2.1455994c3.0172119,1.4662018,6.0863037,2.8567009,9.2276917,4.0299988
	c5.1319885,1.9166985,10.2782898,3.4662018,15.9742126,2.4047012c3.5278015-0.6573982,7.2221069-0.4562988,10.8439941-0.5372009
	C410.5054626,33.2265282,411.1835022,33.469574,411.8039246,33.8246002z"/>
<path class="st5" d="M208.2477875,64.3330994c0.569397-0.7572975,0.9830017-1.7679939,1.7342072-2.2299995
	c3.7794952-2.3231964,7.6638031-4.4756012,11.4788055-6.7425003c2.995697-1.7799988,5.9317932-3.6600037,8.9165955-5.4583969
	c3.8777008-2.3367004,4.9649963-5.8269005,2.7973938-9.6283989c-0.545105-0.8448982-1.3265228-1.5109329-2.2471008-1.9152985
	c-2.2353973-1.0237007-4.7100067-2.2971001-6.3786926,0.2841988c-0.9192047,1.4219017,0.7046967,2.5335999,0.7725067,3.8913002
	c0.1300049,2.5999985-2.6445007,1.7056007-4.0092926,0.2521019c-4.3719025-4.6553001-5.9183044-10.391201-6.0050964-16.6239014
	c-0.0122986-0.8846016,0.1999969-1.8829994-1.2279968-1.763298c3.2400055-1.8829994,6.470993-3.7827988,9.7279053-5.6366997
	c0.8148956-0.4637985,1.7138977-0.7799988,2.574295-1.1638985c1.5180969,0.4067993,2.7444,1.5249786,3.2891998,2.9991989
	c0.4481049,1.0057983,0.9756012,1.9740982,1.4029999,2.9855995c0.5691528,1.4706841,1.9419098,2.4758644,3.5157928,2.574398
	c3.283905,0.4390984,4.5140076,1.7916985,4.0182037,5.0038986c-0.6031952,3.9090996,1.2451935,6.8269997,3.3300018,9.6800003
	c2.4419861,3.3418007,2.2892151,5.6943016-0.8117981,8.3548965c-0.5585938,0.4800034-1.0164032,1.0551987-1.5731049,1.5342026
	c-1.3412933,0.9100037-2.9667053,0.7361984-4.4438019,1.1434021c-6.675705,1.8399963-12.0906067,5.8463974-17.441803,9.9800034
	L208.2477875,64.3330994z"/>
<path class="st3" d="M260.1560059,4.4337997c1.6648865,1.7409992,0.5848083,3.7723007,0.4241028,5.6118011
	c-0.2438965,2.4647121,0.3288269,4.9412842,1.6300049,7.0486984c1.0320129,1.9218559,1.7503052,3.996273,2.1276855,6.1448021
	c0.1463013,0.703701-0.7095032,1.8456001-1.4010925,2.4520988c-2.2736816,2.0206413-3.5812378,4.912529-3.5964966,7.9542999
	c-0.0766907,1.5724983,0.028595,3.1537018,0.0516968,4.730999c-0.3037109,0.6579018-0.9572144,0.8782005-1.5231934,1.1974983
	c-1.2661133,0.7148018-2.7106171,1.1581001-3.9888153,0.4566994c-1.3370056-0.7336006-1.2055054-2.287899-1-3.5920982
	c0.236084-2.4207916-0.113739-4.862854-1.019989-7.1199989c-0.5539246-1.2931786-0.6999207-2.7246208-0.4184875-4.1030006
	c0.165802-0.9809113,0.9661255-1.7303925,1.9558105-1.831501c1.0327148-0.0780983,1.2636108,0.8218994,1.6094055,1.5433006
	c0.4493103,0.9373016,0.5443115,2.4726982,2.046524,2.0756989c1.5592957-0.4124985,1.664093-1.9300003,1.5499878-3.2817993
	c-0.2550964-3.0200005-3.8089142-5.4991989-6.9870148-4.8254013c-3.1901245,0.5924606-6.1962585,1.9266586-8.7757874,3.8949013
	c-2.4873962,1.9672012-5.2380981,3.2868004-8.5713043,2.0931015c-1.3689423-0.3659248-2.4828949-1.3599777-3.0016937-2.6786003
	c-0.7218933-1.9690018-2.1078033-3.655201-2.4750061-5.7780991l15.2589111-7.4030991
	c0.6480713,0.3473206,1.1661682,0.8952408,1.4767151,1.5617008c1.2438049,2.0035992,3.1942139,2.6725998,5.3962097,2.8048
	c1.1898193,0.110754,2.337677-0.4710159,2.9518127-1.4960995c1.3495178-2.0729465,2.4843903-4.2779598,3.3870087-6.5809002
	L260.1560059,4.4337997z"/>
<path class="st6" d="M228.7919922,16.4276009c0.9707947,1.6968994,2.052002,3.3414993,2.8865051,5.103199
	c1.2158051,2.5666008,3.7216949,4.0545006,6.3316956,2.976799c2.5935974-1.0709,4.8708954-2.8865013,7.4251862-4.079998
	c2.1675415-1.056942,4.4605103-1.8344269,6.8239136-2.3138008c3.1817932-0.5816002,7.9686127,2.9408989,6.9121246,7.0265999
	c-0.3320007,1.2152214-1.1676636,2.2305374-2.2963867,2.7900009c-1.5330048,0.5063019-1.9246063-1.0959015-2.2837067-2.3151016
	c-0.1828003-0.6212006-0.4317017-1.2228012-0.6771851-1.9071999c-1.4908142,0.2074013-2.2009888,0.9818001-2.0220032,2.3620987
	c0.1677856,1.2937012,0.593689,2.5540009,0.7637939,3.847599c0.3099976,2.3563995,0.5140076,4.7265015,0.762207,7.0909004
	c0.0953064,0.9057007,0.1907043,1.8112984,0.3237915,3.074501c2.1229858-0.6411018,3.8863068-1.1735001,5.6500092-1.7062988
	c0.3077393,0.0495987,0.6152344,0.0992355,0.9224854,0.1488991c-4.9743195,3.3482018-9.9487457,6.6963348-14.9232025,10.0444031
	c-1.2542114-0.1369019-2.1437073,0.6784973-3.0990906,1.2524033c-0.8860931,0.5320969-1.7100067,1.0630035-2.7740936,0.5378036
	c0.5094147-0.6774063,1.0741882-1.3113556,1.6885071-1.8953018c2.3225861-1.8899994,2.4955902-4.5668983,0.5825958-6.9105988
	c-2.6300049-3.2220001-4.7572937-6.6542015-3.6614075-11.1530991c0.4626923-1.3975716-0.2951965-2.9056091-1.6927643-3.3682938
	c-0.2276154-0.0753593-0.4643707-0.1196594-0.7038422-0.1317062c-3.3000031,0.1109009-4.6141968-1.6893005-5.8730011-4.2115021
	c-1.0352631-1.7783737-2.1972809-3.4798775-3.477005-5.091301L228.7919922,16.4276009z"/>
<path class="st6" d="M81.0862045,112.9251099c-3.6179962,1.4223022-7.2706985,2.7651978-10.8268967,4.3278046
	c-0.8039017,0.3531952-1.2717972,1.4716949-1.8943024,2.2377014c-5.3616066,2.2357941-10.6815071,4.5823975-16.1147041,6.6284943
	c-1.3300018,0.5009003-3.0306015,0.019104-4.5607986-0.0106049l0.405899-3.7810974
	c3.1551971-2.9860992,5.2033997-6.7911987,7.5986023-10.3352051c0.5421143-0.8595886,1.1497116-1.6760712,1.8173981-2.4421997
	c6.1951981-2.3896027,12.3903008-4.7792358,18.5853004-7.1688995c0.5289993,0.3610992,0.3669968,0.8580017,0.3125,1.3685913
	c-0.3329468,2.1479187,1.1383743,4.1590576,3.286293,4.4920197c0.4425888,0.0686035,0.893631,0.0611572,1.3337097-0.0220184
	c0.854599-0.1248016,1.7054977-0.4461975,2.5075989,0.1612091c0.8010025,1.1544037-0.2284012,1.8414917-0.6922989,2.6647949
	C82.4137039,111.8112946,81.5799026,112.2111969,81.0862045,112.9251099z"/>
<path class="st5" d="M81.0862045,112.9251099l2.3936996-4.3600006c0.2553787-0.5409088,0.7598953-0.9221039,1.3499985-1.0200043
	c5.8083038-1.4468994,10.4716034-5.0500031,15.4241028-8.120697c3.5886002-2.2247009,6.8458023-4.9588013,10.6316986-6.8759003
	c7.4114075-1.5279999,14.8300018-3.019989,22.2305984-4.5999908c3.7026062-0.7906036,7.3699951-1.7432098,11.0540924-2.6227112
	c-0.2205963,0.6148987-0.2545929,1.5274963-0.6900024,1.8000031c-5.7333984,3.5906982-12.1954041,4.8043976-18.7399979,6.0727081
	c-4.2966003,0.8329926-8.454895,2.7083893-12.4790039,4.5464935c-7.2750015,3.3227997-14.4039001,6.9651031-21.5919037,10.4777985
	C87.4730377,109.7852631,84.278595,111.3527069,81.0862045,112.9251099z"/>
<path class="st3" d="M110.8859024,92.5489044c-0.9067001,0.7319031-1.7612991,1.5419006-2.7285004,2.1822968
	c-5.2900009,3.5027924-10.5019989,7.1412964-15.9593964,10.3632965c-2.661499,1.5713959-5.7972031,2.3390961-8.718399,3.4707947
	c-0.4296646-0.0623016-0.8647079-0.079071-1.2978973-0.0500031c-4.8336029,0.82341-6.9968033-1.347702-6.0848007-6.1333008
	c0.6820068-0.2110596,1.3640747-0.4219971,2.0462036-0.6327972c0.2113037,0.2091064,0.3774033,0.2400055,0.4468002-0.1127014
	c2.9381027-0.8531952,5.8700027-1.7299957,8.8159027-2.5545959
	C95.2290039,96.8922272,103.0556946,94.7145691,110.8859024,92.5489044z"/>
<path class="st6" d="M306.9242249,82.9230957c11.5338745,0.5408478,22.9559021,2.512619,34.0035706,5.8700104
	c0.2710876,1.9321899-0.593811,3.6246948-1.1369934,5.384903c-9.48349-3.3236084-19.3124084-5.0528107-29.237793-6.3388062
	c-0.2817078-0.052536-0.5600891-0.121582-0.8337097-0.2068024
	C309.1820984,85.8287048,307.0898132,84.9474945,306.9242249,82.9230957z"/>
<path class="st5" d="M275.6378174,78.6298981c-2.0299988-0.4508972-4.075592-0.8459015-6.0770874-1.399292
	c-0.4012146-0.1110077-0.9576111-0.9132996-0.8681946-1.2394104c0.2485046-0.5108185,0.6994629-0.8943176,1.2435913-1.0574951
	c2.9522095-0.978302,5.9150085-1.9331055,8.905304-2.788208c7.0873108-2.0265961,14.1618042-4.1128998,21.3106995-5.8988953
	c1.9437561-0.4910126,3.9851074,0.3041534,5.0845947,1.9805908c-6.144989,2.1784973-12.2720947,4.4100037-18.4421082,6.5149078
	c-3.4508057,1.1772003-6.9755859,2.1365967-10.4563904,3.2276001
	C276.0624084,78.0559998,275.8688965,78.4037018,275.6378174,78.6298981z"/>
<path class="st5" d="M182.6009979,65.233902c0.8265839-0.4329681,1.6872253-0.7975159,2.5733032-1.0899963
	c3.0337982-0.7507057,4.0039062-0.0908966,5.164093,3.3246918l-15.0030975,11.3934021
	c-0.9181976-0.5668335-1.9199371-0.9855652-2.968399-1.240799c-1.5278931-0.1237946-2.4100037-0.6723938-2.6856995-2.1690979
	c3.5825043-2.7144012,7.1773071-5.4131012,10.7380981-8.1555939
	C181.1823578,66.6478729,181.9105988,65.9593811,182.6009979,65.233902z"/>
<path class="st5" d="M306.9242249,82.9230957c0.8059692,0.8827209,1.5616455,1.8100433,2.2634888,2.7776031
	c0.2763367,0.6125641,0.4555664,1.2644501,0.531189,1.9322052l-26.0299988-2.2850037
	c-0.1757507-1.6562653-0.3514099-3.3125-0.5270081-4.9687042C291.0827942,81.2267914,299.0035706,82.0747681,306.9242249,82.9230957
	z"/>
<path class="st5" d="M339.7904053,94.1782074c0.3788757-1.7949982,0.7578735-3.5899658,1.1369934-5.384903
	c3.0477295,0.9424591,6.0955811,1.8843231,9.1435852,2.825592c2.0177917,0.6193085,4.0400085,1.2229004,6.060791,1.8334045
	c0.3697815,0.6733246,0.7868652,1.3195801,1.2481079,1.9338989c2.4353027,2.8345032,4.9117126,5.6338959,7.3736877,8.4454956
	c-5.9838867-4.3907928-13.1268005-5.815094-20.0331116-7.8592987
	C343.046814,95.477005,341.4322205,94.781601,339.7904053,94.1782074z"/>
<path class="st6" d="M357.0924988,69.148407c-0.1679077-2.5380096,0.9960938-3.8276062,4.0921021-3.7230988
	c2.4526978,0.082489,4.0244141-0.5207062,5.3919067-2.7086067c1.0592041-1.6948013,3.111908-1.3424988,4.9700012-0.7981033
	c1.2364197,0.2556229,2.4930725,0.4009247,3.755188,0.4341965c1.8523865,1.6555977,3.9599915,0.2699966,5.928009,0.5129013
	c0.7501221,0.1417694,1.4892883,0.336319,2.2120056,0.5821991c-8.1568909,2.475399-16.0820923,5.9399986-24.8452148,5.8252983
	C358.0942993,69.2666931,357.5935974,69.1916962,357.0924988,69.148407z"/>
<path class="st1" d="M224.4098969,59.113102c4.5975952-2.0806961,9.1936035-4.1661987,13.7355957-6.3627014
	c2.5036926-1.210701,4.8356934-2.7759018,7.2456055-4.1800003c-1.9577942,0.5965958-3.9155426,1.1932602-5.8731995,1.7900009
	c-1.636795,0.347702-3.2817993,0.6600037-4.9087067,1.0494003c-5.3762054,1.2848969-9.7091064,4.467804-14.1125031,7.5159988
	c-0.9181061,0.3856964-1.8358002,0.7699966-2.767395,1.0936966c-2.8830872,0.9668427-5.8309021,1.7287369-8.8213959,2.2799988
	c-3.1394043,0.6138-6.2955017,1.0220032-9.4700012,1.3925018c-2.3486023,0.2742004-4.6092072,0.2304993-6.6333008,1.481205
	c-0.2833099,0.1914368-0.3577728,0.5762787-0.1663513,0.8595886c0.0827637,0.122467,0.206604,0.2112885,0.3491516,0.250412
	c2.6907959,1.008194,5.8287964,0.2149963,8.6329956-0.1529999c2.9199982-0.3830109,5.8583069-0.8265991,8.7328949-1.4766083
	C214.8377991,63.6398964,220.6555939,62.2409019,224.4098969,59.113102z"/>
<path class="st4" d="M257.2626038,5.3139992c0.0286865,3.3299999-1.9885101,5.799099-3.935318,8.0508003
	c-1.4822998,1.7143002-6.5730896,0.1917992-8.0285034-2.035099c-0.4764099-0.7289009-0.8352966-1.5347004-1.2478943-2.3052006
	C248.4549103,7.7875004,252.8588104,6.5506649,257.2626038,5.3139992z"/>
<path class="st6" d="M451.4070129,146.9304962c-2.0863953-0.2433014,0.5100098-4.6929932,0.6184082-5.232193
	c0.1091309-0.7127686,0.3178406-1.4066772,0.6199951-2.0614014c0.3102112-0.6608582,0.8841858-1.160675,1.5813904-1.3771057
	c2.4515076-0.6165924,3.8425903,2.6891022,4.1231995,4.5919037c0.2235107,1.5155029-0.115509,3.1880951-1.8410034,3.5014038
	c-0.8027039,0.1457977-1.6549988-0.4420013-2.4664917-0.3121948
	C452.9009094,146.2230988,452.5866089,147.0675964,451.4070129,146.9304962z"/>
<path class="st5" d="M202.3127899,33.9672012c-0.1380005,0.765316-0.3671265,1.5113564-0.6824951,2.2221985
	c-1.7066956,2.8848-3.425293,5.7686996-5.2984009,8.5460014c-0.8716278,1.1593513-1.8804016,2.2089233-3.004303,3.1258011
	c-1.5675964,1.4083023-3.1712952,2.7882004-4.8641052,4.0389023c-0.6997375,0.3380051-1.4530487,0.5514297-2.2261047,0.6306992
	c4.4176941-6.4450989,9.1260986-12.648201,14.9716949-17.8972015
	C201.5546722,34.3764572,201.9242859,34.153286,202.3127899,33.9672012z"/>
<path class="st5" d="M143.089798,93.736496c1.9049072-0.2671967,3.8083954-0.5446014,5.7167053-0.7854004
	c0.1873016-0.0236969,0.4033051,0.1778107,0.6060028,0.2749023c0.9308929,0.5728455,1.91922,1.0466309,2.9488068,1.4136047
	c7.0335999,1.7337036,13.5252075,4.8385925,20.0776062,7.7953033c0.1190186,0.0732574,0.2281647,0.161438,0.3247986,0.2623901
	c0.2937927,1.2879028,1.3831024,1.8312988,2.3612061,2.4343109c1.9868011,1.2249908,2.3845062,2.1959991,1.4907074,4.3128967
	c-0.9277039,2.1971893-1.5874023,4.539093-3.2751007,6.3507996c-0.3431091,0.4064941-0.3787231,0.9899902-0.0876007,1.4351959
	c0.9017944,2.1107025,0.422699,2.9810944-1.8220062,3.4241028c-0.6434479,0.1392975-1.2779236,0.3171997-1.8999939,0.5326996
	c-0.9447632,0.3417511-1.9932251,0.2394409-2.8540955-0.2785034c-0.8063965-0.488266-1.7627563-0.6667786-2.6909943-0.5023041
	c-1.4290009,0.2109985-2.146698-0.4942932-2.0200043-1.9526978c0.0736389-0.7949219-0.1377106-1.5901337-0.5962982-2.2436066
	c-0.7118378-1.0515747-1.2931824-2.185791-1.7312012-3.3777008c-0.4323578-1.320755-1.4018402-2.3977966-2.6699982-2.9662018
	c-1.9317017-0.8627014-2.6961975-2.563797-3.2705994-4.3616028c-0.4178925-1.3079071-0.8361053-2.6347961,0.0099945-4.0594025
	c0.5617065-0.9458008-0.0930023-2.4000092-1.1139069-3.2236023c-1.435257-1.1528778-3.1021881-1.9827576-4.887207-2.4331055
	c-1.2299957-0.3183899-2.4176025-0.7709961-3.6430054-1.1044922C143.612793,94.5617981,142.9711914,94.501297,143.089798,93.736496z
	"/>
<path class="st3" d="M182.4760895,108.9331055l5.2261047,4.3336945c-0.1432648,0.2572021-0.4371033,0.3913879-0.725296,0.3312073
	c-1.1463928-0.2378693-2.3051453,0.3475037-2.7938995,1.4114075c-0.8441315,1.0403595-1.1765594,2.4047394-0.9055939,3.7167969
	c0.3708649,1.5176697,1.2272797,2.8726807,2.4389954,3.858902c2.1092987,1.5890961,2.5473938,3.1340027,1.7245026,5.648407
	c-0.5567017,1.7008972-0.25,2.1000061,1.485199,1.6486053c2.2624512-0.7874298,4.7670746,0.1191101,6.0014038,2.1721954
	c0.5183258,0.8103638,1.4980469,1.1967773,2.4299927,0.9584045c1.4929962-0.2059937,3.0466003-0.2375031,4.2556,0.8981934
	c1.442749,1.7171173,1.4252014,4.2277069-0.0413971,5.9244995c-0.4795532,0.4741211-1.1625977,0.6803284-1.8244019,0.5507965
	c-2.0597534-0.2135773-4.0480499-0.8742676-5.826004-1.9358978c-0.9171906-0.577713-1.6602936-1.3936462-2.1499939-2.3607025
	c-0.2236023-0.4774017-0.5061951-0.9472046-1.1100006-0.9499969c-0.6972046-0.0032959-0.9230957,0.5655975-1.1246033,1.094101
	c-0.4347382,0.9876251-0.9345093,1.9453278-1.4960022,2.866806c-2.7333374-1.2421875-5.4666748-2.4842987-8.1999969-3.7263031
	c-0.4985504-2.4087982-2.1072388-4.4397583-4.3379059-5.476593c-0.9746094-0.5654602-1.7975616-1.3588257-2.3983002-2.3121033
	c-1.4452972-1.8099976-1.9057007-1.9091949-3.9799957-0.9151001c-0.1318054,0.0522308-0.2806091,0.0385742-0.4006958-0.0368042
	c-0.212204-0.2637329-0.4243317-0.5276031-0.6363983-0.7915955c-0.5256958-0.752594-1.0585938-1.5505981-0.3321075-2.4217072
	c0.6367645-0.8829193,1.7981567-1.2103271,2.8023071-0.7899933c1.9494019,1.0256042,3.2987061,0.7866974,4.593399-1.0466003
	c0.7218781-0.7490845,1.6218262-1.3029938,2.615799-1.6100006c1.1416931-0.4259491,1.8397675-1.5819702,1.6851959-2.7906952
	c-0.053299-1.0516968-0.1228027-2.0858002,1.2700043-2.4384003c0.5140076-0.1300049,0.5225983-0.7279968,0.5549011-1.1999969
	c0.0711975-1.0346985-0.0964966-2.0646057-0.0867004-3.0947113
	C181.1965942,109.6517029,181.2477875,108.7559967,182.4760895,108.9331055z"/>
<path class="st4" d="M188.0401001,139.1007996c0.5606995-1.4304657,1.2025146-2.8278046,1.9223022-4.1851959
	c0.4046021-0.6835938,1.6240997-0.2980042,1.987793,0.629303c0.9743042,2.4855042,3.1230011,3.3190002,5.4073944,3.9868011
	c0.4029999,0.1179047,0.8350067,0.1331024,1.2453003,0.2308044c2.533493,0.6031952,3.1278992,0.2261963,3.6730042-2.3500061
	c0.4483948-2.1199951-0.5399933-3.6949005-2.5984955-3.9792938c-0.872467-0.1347961-1.7610321-0.1273041-2.6311035,0.0222015
	c-0.832962,0.260498-1.7344666-0.0987244-2.1600037-0.8607025c-1.5278931-2.478302-3.6392059-3.1000061-6.3807983-2.247406
	c-0.6033936,0.1878052-1.3946991-0.2281036-2.1725006-0.3800049c0.3686981-0.9205933,0.6578064-1.497406,0.8332977-2.1067047
	c0.6602325-1.8353271,0.0160828-3.8856812-1.5751038-5.0137024c-3.6246033-2.8963928-3.688797-6.186203-0.5973969-9.4382019
	c0.2667694-0.165741,0.5814209-0.2371826,0.8936005-0.2028961c0.6040955-0.0113068,1.2095032,0.037796,1.8146973,0.0619965
	c5.3423615,4.4758301,9.8330536,9.8790894,13.2561951,15.9499969c1.7876434,2.8451538,3.1400757,5.9414825,4.0124969,9.1864014
	c0.4888,2.0894012,1.3766937,4.0821991,1.9812927,6.1488953c0.2086487,0.8615265,0.3006287,1.7471771,0.2734985,2.633194
	c0.0032043,0.2523956-0.3786011,0.5099945-0.5838928,0.7648926c-2.8625946-1.1306-5.1728058-3.156601-7.737793-4.7700043
	c-1.7718811-1.0623016-3.6818542-1.875061-5.6759033-2.4152985c-0.5991058-0.0700836-1.2038116-0.0788574-1.8047028-0.0261993
	L188.0401001,139.1007996z"/>
<path class="st6" d="M182.4761963,108.9331055c-0.9848938,0.2200012-1.0126953,0.9517975-0.9515991,1.748703
	c0.0677032,0.8827972,0.1244965,1.7669983,0.1600037,2.6515045c0.0480957,1.1959991-0.114502,2.2368011-1.7906036,1.9557037
	c-0.0045166,1.0472565-0.0674438,2.0934448-0.1885071,3.1336975c-0.1091919,0.5192108-0.402771,0.9812775-0.8264008,1.300705
	c-0.9485016,0.6687012-2.0270996,1.1511993-2.990799,1.8013c-0.5849152,0.3634491-1.0836792,0.8499146-1.4615936,1.4255981
	c-0.2841644,0.7933197-1.1576385,1.2060699-1.950943,0.9219208c-0.1770172-0.0634155-0.3407898-0.1589966-0.4830627-0.2819214
	c-0.4327087-0.2814484-0.8998871-0.5059204-1.3899994-0.6678925c-2.0628967-0.5800018-3.1134949,0.6539001-2.5166016,2.9192047
	c-2.9393005-2.9848938-5.9199982-5.9299927-8.8074036-8.9651031c-3.8215332-4.1588593-7.1644135-8.7333374-9.9658966-13.6376038
	c-1.0220947-1.7171021-1.9855042-3.4700012-3.0357971-5.1688995c-1.1677399-1.9469299-3.0360107-3.3734131-5.2218018-3.9869995
	l2.0343018-0.3471985c1.4199982,0.5350037,2.8609924,1.019989,4.2546997,1.6165009
	c1.772995,0.6868896,3.4961395,1.496109,5.1569977,2.4217987c1.8907013,1.1436005,2.0792999,2.612793,1.2519073,4.6699982
	c-0.1701355,0.769043-0.1160583,1.570755,0.1558075,2.3099976c0.4842987,1.9109955,1.0646973,3.7718964,3.107605,4.704895
	c1.5463409,0.7321472,2.7054138,2.0911102,3.1844025,3.7336121c0.3518524,0.8633575,0.7839508,1.6917877,1.2906036,2.4743958
	c0.5449982,0.9481964,1.1869965,1.7599945,0.803299,3.0594025c-0.3049927,1.0332947,0.5809937,1.4859924,1.8446045,1.3760071
	c0.7993011-0.0957184,1.6096039,0.0269012,2.3448029,0.3547974c1.0145416,0.6175079,2.2623291,0.7156067,3.3609009,0.2642059
	c0.6093597-0.2490387,1.2469025-0.4225616,1.898407-0.5166931c1.5200043-0.2086945,2.2088013-1.5399933,1.2247009-2.701004
	c-0.7171021-0.8457031-0.3159027-1.357605,0.0792999-2.0975037c1.2637939-2.3659058,2.5357056-4.7376099,3.5966034-7.196701
	c0.3432159-0.9859619-0.1479797-2.0677185-1.1161957-2.4582062c-0.9917603-0.6124573-1.9394989-1.2934875-2.8363037-2.0381012
	c-0.4122925-0.3192902-0.6822968-0.7305908,0.071701-1.0167999L182.4761963,108.9331055z"/>
<path class="st4" d="M168.722702,126.6339111c1.7904968-1.5599976,2.906601-1.3347015,4.5299988,0.4888
	c1.1226654,1.2160797,2.3915863,2.2884674,3.7778015,3.1927032c1.5617981,1.053894,3.058197,3.491806,2.8099976,5.0590973
	c-1.8549957-1.2599945-3.7893982-2.4188995-5.5438995-3.8058014
	C172.3522949,130.0323029,170.573288,128.2879028,168.722702,126.6339111z"/>
<path class="st3" d="M191.4230957,140.7391968c0.5682068-0.2071381,1.1691437-0.3100586,1.7738953-0.3038025
	c3.6576996,0.7787018,6.6278992,2.9299927,9.6629028,4.9562073c0.9481049,0.6327972,2.0267944,1.0670013,3.0063019,1.6576996
	c0.3038483,0.2579956,0.5653839,0.562027,0.7751007,0.901001c-0.5937958,0.0157928-1.2899933,0.2409058-1.7631073,0.0092926
	c-1.6358032-0.8014984-3.1728058-1.8014984-4.7859039-2.6533051c-2.5260925-1.3339996-5.0854034-2.604599-7.6251984-3.912796
	C192.103302,141.2061005,191.770401,140.9588013,191.4230957,140.7391968z"/>
<path class="st5" d="M57.5114021,109.5500031c-2.6640015,4.0993042-5.3099976,8.2108002-8.0251007,12.276001
	c-0.2200012,0.3294067-0.9141006,0.3423004-1.3893013,0.5018005
	C48.8069992,115.7243042,52.3135948,110.9660034,57.5114021,109.5500031z"/>
<path class="st5" d="M366.1596985,105.1625061c0.2167358,0.2253265,0.4334106,0.4505157,0.6499939,0.6755981
	C366.5932007,105.6128387,366.3765259,105.3876343,366.1596985,105.1625061z"/>
<path class="st5" d="M365.4458008,104.456604l0.5252075,0.4881897
	C365.79599,104.7819977,365.6209412,104.619278,365.4458008,104.456604z"/>
<path class="st5" d="M366.8292236,105.8672028c0.1632385,0.1699982,0.3265686,0.340271,0.4899902,0.5108032
	C367.1559448,106.2077332,366.9926147,106.0374603,366.8292236,105.8672028z"/>
<path class="st6" d="M78.5899048,101.6360931c-0.1488037,0.0378113-0.2975616,0.07547-0.4462967,0.1130066
	C78.2921371,101.7112885,78.4409027,101.6736298,78.5899048,101.6360931z"/>
<path class="st6" d="M422.5855103,36.4981003c-0.3135376,0.3039703-0.6051331,0.6297874-0.8725891,0.9749985
	c-1.3132935,1.9692001-1.9841919,2.1208-3.8461914,0.8233986c-1.8049927-1.2578011-2.0499878-2.5614014-0.9176025-4.2039986
	c0.7432861-1.3100128,1.5539856-2.580616,2.4288025-3.8067017c0.6204529-0.5576706,1.4520264-0.8192558,2.2799988-0.7172012
	c1.5860291,0.2616348,3.1401978,0.6890106,4.6369934,1.2751007c2.1417847,0.8128014,3.6054993,3.8279991,2.4612122,5.7952003
	c-0.4953918,0.8516006-2.3734131,1.1453018-3.6470947,1.2075005
	C424.3200989,37.8851013,423.486908,37.012001,422.5855103,36.4981003z"/>
<path class="st6" d="M380.6447144,49.7058983c-1.1867371-0.7809448-2.3184204-1.6424713-3.387085-2.5784988
	c-0.1148987-0.1130981,0.7416077-1.6851997,1.0295105-1.6487007c1.1324463,0.1416779,2.2199402,0.5305176,3.1854858,1.1389999
	C381.6813965,46.7531013,381.0865173,48.1272011,380.6447144,49.7058983z"/>
<path class="st6" d="M439.0038147,141.2200012c-0.4664917-1.5984955,0.6111145-2.8330994,2.2464905-2.3607941
	c1.3421936,0.4092712,2.6246033,0.9936676,3.8140869,1.7380981c1.2850952,0.783493,0.4068909,1.9199982,0.0806885,2.8258972
	c-0.306488,0.8507996-0.8835144,1.2032928-2.0451965,1.0213928
	C441.2434998,144.2093506,439.6682739,142.9692841,439.0038147,141.2200012z"/>
<path class="st6" d="M443.875824,138.9356079c-0.2684937,0.417099-3.0899963-1.4382019-3.1387024-2.0028992
	c-0.1441956-1.6813965,3.414093-0.9378967,3.6279907,0.2828064
	C444.3792419,137.8251038,444.2086792,138.4247131,443.875824,138.9356079z"/>
<path class="st2" d="M427.9790955,126.0250092c0.1516113,1.1121979-1.649292,0.75-1.8956909-0.0334015
	C425.6599121,124.6450043,427.8188171,124.8751068,427.9790955,126.0250092z"/>
<path class="st5" d="M247.6191864,30.3970985c0.4841919,1.4589996-2.3900146,5.4087982-3.8987122,5.2368011
	c-1.4672852-0.1677017-1.9752045-1.1599998-1.6137085-2.544899c0.2424011-0.9291,0.6014099-1.7675018-0.5037994-2.4877014
	c-0.1822052-0.1188011,0.0516968-1.3699989,0.4356995-1.766201
	C243.003006,27.8387985,247.1829071,29.0821991,247.6191864,30.3970985z"/>
<path class="st6" d="M260.0485229,139.2792969c-5.2268219-2.8973999-9.5228119-6.934906-13.5516205-11.2574005
	c-4.5459747-4.6254272-8.2904663-9.975174-11.0800018-15.8300018c-0.9279022-2.0774994-1.6179047-4.2633057-2.3773041-6.4134064
	c-0.5462952-1.547699-1.0274048-3.1184998-1.5377045-4.678894c2.1311951-0.6483002,4.3630981-0.7766113,6.5283966-1.2532043
	c0.2992859-0.0197296,0.5950775,0.0735474,0.8289032,0.2613983c4.1139069,2.7882996,8.9051056,2.0744019,13.4538116,2.6434021
	c1.9700012,0.2465973,1.3240051-1.5207977,1.9573975-2.2950897c6.1617279,0.8836365,12.0768585,3.0212097,17.3800201,6.2807007
	c1.1400146,0.7010956,2.2591858,1.4371948,3.3879089,2.1570892c-0.8483887,0.9562988-1.6419067,0.2120972-2.3440857-0.1694946
	c-1.7895508-1.0156403-3.7192688-1.7614288-5.7267151-2.2132111c-0.6456299-0.2431488-1.3557434-0.2541504-2.008606-0.0310974
	c-0.2911072,0.8634033,0.3485107,1.2580109,0.6972046,1.7581024c2.4035645,3.0309143,2.2258606,7.3647461-0.4177856,10.1887054
	c-1.7077026,2.0135956-3.4381104,3.9983063-6.1491089,4.7881927c-1.369751,0.3694611-2.2451782,1.7068329-2.0357056,3.1100006
	c-0.0047302,1.3560944,0.287384,2.6967773,0.8558044,3.9279938c1.0899963,2.1672058,1.2228088,4.6340027,2.3280029,6.7805939
	c0.2738647,0.5260468,0.3954773,1.1180878,0.3511963,1.7095032
	C260.5215149,139.0360107,260.4078064,139.282196,260.0485229,139.2792969z"/>
<path class="st3" d="M260.3228149,138.8000031c-1.1350098-3.3491058-2.2843018-6.6932983-3.3917847-10.0514069
	c-0.1978455-0.6090546-0.3034668-1.2442932-0.3132935-1.8845978c-0.0455933-3.0278015,0.3633118-3.5682983,3.2609863-4.5128937
	c3.6870117-1.2021942,7.2977905-6.1900024,6.8429871-10.0023041c-0.1853943-1.5552063-1.3208008-2.9932098-1.9985962-4.495697
	c-0.2210999-0.4900055-0.3619995-1.0164032-0.5400085-1.5261078c0.5568848-0.1694031,1.1972046-0.6067963,1.656311-0.463501
	c2.3857117,0.7450104,4.7206116,1.6511993,7.0838013,2.4709015c0.6867981,0.238205,1.4085999,0.3760986,2.1145935,0.5599976
	c6.5899963,4.1667023,12.5577087,9.0133057,16.9809875,15.546402c-0.5769043,0.781601-1.241394,0.3345032-1.8999939,0.1484985
	c-3.6863098-1.191391-7.1265869-3.0400085-10.1546021-5.4564972c-0.2835083-0.2080994-0.5657043-0.4176941-0.8399963-0.6369019
	c-0.9692993-0.7733002-1.9851074-1.736496-3.2867126-0.9633026c-1.237793,0.7351074-1.1300049,2.0749054-0.9400024,3.3276978
	c0.302124,1.863678,0.1313477,3.7733917-0.4967041,5.553894c-1.1841125,3.226593,0.1532898,5.4539948,2.4457092,7.3973999
	c1.7025452,1.2056122,2.6068115,3.247757,2.3551941,5.3186951c-0.2804871,0.3203735-0.7230225,0.4460449-1.1300049,0.3209076
	c-1.9565125-0.6773071-4.0559998-0.5839996-6.0325928-1.1860046c-2.4087524-0.8366241-5.0470886-0.7140503-7.3678894,0.3423004
	C263.3305054,139.2315063,261.8114014,139.6977081,260.3228149,138.8000031z"/>
<path class="st5" d="M306.5337219,152.8016052c-0.1806946,1.3450012-1.0728149,1.7319031-2.2449036,1.5155029
	c-2.4483948-0.4519958-4.8821106-0.9835968-7.321991-1.482605c-0.5791016-0.1517944-1.105896-0.536499-1.7513123-0.3919067
	l-0.0592041,0.0175018c-2.4169617-1.5658722-4.940979-2.9599762-7.5534058-4.1719971
	c-1.9406128-2.1246033-4.1433105-4.0191956-5.7056885-6.4799957c-0.1383057-0.5758972-0.4520874-1.0834045-0.6340027-1.6425018
	c-0.721344-1.5832367-0.0271912-3.4517365,1.552887-4.1799927c0.2921143-0.1763,0.675293-0.2362061,0.8118896-0.7561951
	c-0.5811768-1.2341003-1.9362793-1.9048157-3.269989-1.6184998c-3.4034119,0.4282074-6.5945129-3.8600006-5.342804-7.1118011
	c0.3199463-0.8431396,1.0445862-1.4672852,1.9258118-1.6587982c2.6014099-0.6871033,5.1694031-0.7447968,7.3215942,1.1524048
	c1.4960938,1.3186035,2.9559021,1.8600006,4.933197,1.0829926c1.3898926-0.4915314,2.9385071-0.0451355,3.8534851,1.1107941
	c1.7109985,1.884903,2.8859863,3.9815063,2.0314941,6.717804c-0.4325867,1.3847961-0.1748962,1.5684052,2,1.9664001
	c0.9519958,0.9837036,1.0906067,2.3153992,1.4200134,3.535202c0.4897156,1.9393921,1.5759277,3.6761017,3.1054077,4.9651947
	C303.9510193,147.366806,305.9998169,149.5904083,306.5337219,152.8016052z"/>
<path class="st6" d="M296.9401245,136.9349976c-0.7359924,0.0725403-1.4790649-0.0049286-2.1842957-0.2277069
	c-0.8699951-0.514801-0.4169922-1.3325958-0.0942993-2.1445007c0.9408875-2.3672028-0.3688965-4.2286987-1.7414856-5.9044037
	c-1.0105896-1.3196106-2.8168945-1.7338562-4.3015137-0.986496c-1.2303162,0.753952-2.8288574,0.4794617-3.7372131-0.6416931
	c-1.95047-2.0458374-4.9186707-2.7590332-7.5856934-1.8226929c-1.8042908,0.5010986-2.5180969,1.5299988-1.98349,3.2718964
	c0.443573,1.4443207,1.1261292,2.8040771,2.0192871,4.0227051c0.6272583,0.5801239,1.4760742,0.8582764,2.3250122,0.7619019
	c2.8457031-0.3161926,3.4324951-0.1092987,4.9655151,2.4743042c-0.3157959,0.1425934-0.6135864,0.3045959-0.9299927,0.4156036
	c-2.1474915,0.7548065-2.7474976,2.0950012-1.9007874,4.2187958c0.178894,0.4485016,0.2829895,0.9266968,0.4215088,1.3912048
	c-1.5568848-0.0305786-2.8572998-1.1952057-3.0586853-2.7393036c-0.4069214-2.1903076-1.5854797-4.1622162-3.3218079-5.5579987
	c-2.1620483-1.581192-2.9775391-4.4266205-1.9812927-6.9129944c0.6271973-1.8522949,0.4493103-4.0088043,0.4554138-6.0292969
	c0.0040894-1.4100037,0.0112-2.8670959,1.3225098-3.5666046c1.1419983-0.6092072,2.2919006-0.0700073,3.3464966,0.8069
	c3.4707031,2.9828033,7.4995728,5.2461243,11.8525085,6.658493c0.3943176,0.0622559,0.7954712,0.0682831,1.1914978,0.0178986
	l1.2983093,1.8377991c0.9768066,2.4246063,2.5331116,4.5735016,3.3200073,7.0959015
	C297.0064087,134.5594025,297.4407959,135.6950989,296.9401245,136.9349976z"/>
<path class="st4" d="M279.1542969,139.0245972l3.0586853,2.7393036c1.8800049,2.1394653,3.7600098,4.2789307,5.6400146,6.418396
	c-0.7247009,0.7682037-1.6499939,0.3072052-2.4848022,0.4062042c-0.9700012,0.1152954-1.9671936-0.3677063-2.9208984,0.1286926
	c-3.3060913-0.9514008-6.6173096-1.8852997-9.9172058-2.8580933c-4.4994507-1.4793701-8.7186279-3.7036133-12.4815979-6.5800018
	c0.0913696-0.1600037,0.1828003-0.3197784,0.274292-0.4792938c1.7022705-0.4670868,3.4312439-0.8308868,5.1773987-1.0894012
	c2.0514832-0.2080231,4.1185913-0.2111664,6.1707153-0.0093994
	C274.1838074,137.9698029,276.661499,138.5684967,279.1542969,139.0245972z"/>
<path class="st1" d="M254.2703094,100.4564056c0.0515137,0.7520905,0.1028137,1.5039978,0.1700134,2.4899902
	c-0.4620056,0.1187897-0.9364319,0.1825714-1.4133911,0.1900024c-3.9114075-0.3808899-7.8216858-0.7787933-11.7248993-1.2359009
	c-0.5687256-0.1131439-1.0993347-0.3691101-1.5419006-0.7437897c-1.0904083-1.0119629-2.7193451-1.1789703-3.9924011-0.4093018
	c-1.1900024,0.5872955-2.8274994,0.2675934-4.2660065,0.3519897c-0.3999939-0.6199951-0.7997284-1.2400055-1.1992035-1.8600006
	c1.9710999-0.6004944,3.9468994-1.1867981,5.9082947-1.8171997c0.2922058-0.0939941,0.5175934-0.3952026,0.7740021-0.5999908
	L254.2703094,100.4564056z"/>
<path class="st1" d="M296.9401245,136.9349976c-0.6613159-3.3968353-1.8673706-6.6644592-3.5715027-9.6764069
	c-0.1412964-0.2588959-0.0400085-0.6499939-0.0512085-0.9799957c2.4255066,3.7366943,5.1442871,7.3200073,7.1982117,11.2509003
	c2.2786865,4.3609924,3.9657898,9.0328064,5.8642883,13.588501c0.1348877,0.5504303,0.1867065,1.1179352,0.1538086,1.6837006
	c-0.3933411-0.9650726-0.8631592-1.897171-1.4049988-2.7873993c-0.7415161-1.184082-1.6663818-2.2429047-2.7399902-3.1369019
	C298.9655151,144.3950043,297.967804,140.6773071,296.9401245,136.9349976z"/>
<path class="st1" d="M282.4478149,148.7172089c0.3139954-0.2218933,0.6245117-0.6280975,0.9422913-0.6340027
	c1.4865112-0.0274963,2.9751892,0.0554047,4.4631958,0.0991058c2.3955994,1.2100067,4.7944031,2.4136963,7.1759949,3.6499939
	c0.1192932,0.0617981,0.0899963,0.4091034,0.1290894,0.6255951c-3.2882996-1.0018005-6.5726013-2.014801-9.8640137-3.0036926
	C284.355896,149.173111,283.3968201,148.9611053,282.4478149,148.7172089z"/>
<path class="st1" d="M295.2155151,152.4431c0.5838013,0.1305389,1.167572,0.2611694,1.7513123,0.3919067
	C296.3829956,152.70401,295.7992249,152.5733643,295.2155151,152.4431z"/>
<path class="st4" d="M264.3044128,136.1952972c-0.7798462,0.2055969-1.5907593,0.2666016-2.3926086,0.1799927
	c-0.7571106-0.2332001-1.8786011-0.9544983-1.8999939-1.4987946c0.0504761-0.9059448,0.5570374-1.7244415,1.3453064-2.1737976
	c1.2953796-0.2909851,2.6396484-0.2868042,3.933197,0.012207c0.5329895,0.1038971,1.3911133,1.3200073,1.2557068,1.5677032
	c-0.5569458,0.7917633-1.2190857,1.5039978-1.9682007,2.1170959
	C264.48703,136.3313751,264.3959045,136.2632446,264.3044128,136.1952972z"/>
<path class="st2" d="M287.1534119,138.8155975c1.1916504,0.6933746,1.7414246,2.1216888,1.3222046,3.4351044
	c-0.933197,1.9611053-2.7460938-0.2010956-3.7875977-1.0700073
	C284.3014221,140.8565063,285.7766113,138.2570038,287.1534119,138.8155975z"/>
<path class="st1" d="M292.0335083,138.6119995c-0.0178223-1.0792999-0.9072266-1.9397736-1.9865112-1.9219513
	c-0.0621338,0.0010223-0.1241455,0.0050201-0.1858826,0.0119476c-1.0228882,0.1405945-1.2159119,1.378006-0.8823853,2.1773071
	c0.2793274,0.8269806,1.176178,1.2709656,2.0031433,0.9916382c0.5139465-0.173584,0.9029236-0.598587,1.0304565-1.1258392
	C292.021698,138.7007751,292.0287781,138.6564026,292.0335083,138.6119995z"/>
<path class="st1" d="M287.9353027,144.0250092c1.2520142-0.8354034,0.9016113-3.1741943,0.3559875-4.3011017
	c-0.4659119-1.087738-1.7254028-1.5918121-2.8131409-1.1259003c-1.0712891,0.4588776-1.5793457,1.6898346-1.1435547,2.7707062
	c0.4363098,1.1600037,1.5260925,3.1757965,3.0477905,2.8800049
	C287.5798035,144.2118835,287.7678223,144.1358185,287.9353027,144.0250092z"/>
<path class="st1" d="M224.908493,47.6791992c2.0715027-1.1273994,2.4400024-3.6327019,1.6925049-5.6861992
	c-0.5073547-1.0897903-1.1660919-2.102459-1.9566956-3.0079994c0.3186951-0.4542999,0.7077942-1.1007996,0.9521027-1.1483002
	c0.2389984-0.0463982,0.6380005,0.4785995,1.111496,0.2075996c0.1706696-0.1048126,0.3057098-0.2587357,0.3874054-0.4416008
	c0.123703,0.0558014,0.2409058,0.1106987,0.341507,0.1621017c1.3158875,0.7529984,2.5467987,1.6456184,3.671402,2.6623993
	c0.2834015,0.2312012,0.5258942,0.7272987,0.9882965,0.6251984c0.0484924-0.0107002,0.0966949-0.0211983,0.1446991-0.0320015
	c0.3396606-0.1016693,0.5691071-0.4182701,0.5599976-0.7727013c-0.5540009-3.5130005-6.6488953-7.4589996-10.0993042-5.9819984
	c-2.0599976,0.8813019-2.1649017,2.9500008-1.4078064,4.7925987c0.4936066,1.2014999,1.6813965,2.3437996,1.9447021,3.6113014
	c0.4364014,2.1010017-2.0451965,1.4905014-3.4461975,1.7700005c-0.6641693,0.2107964-1.0316925,0.9200974-0.8209076,1.5842667
	c0.0306702,0.0966263,0.072876,0.1892052,0.1257019,0.2757339C220.1477966,48.2935982,222.987793,48.7249031,224.908493,47.6791992z
	"/>
<path class="st1" d="M172.0832977,83.4956055c3.4788971-3.3486023,6.949295-6.6324005,10.7400055-9.6352081
	c3.1799927-2.519989,6.9049072-4.6987,9.5247955-7.8309021c0.2208405-0.2519836,0.1956024-0.6352997-0.0563965-0.8561401
	c-0.1527557-0.1338806-0.3623505-0.1824341-0.5584106-0.1293488c-4.3233032,1.2350006-8.0440063,4.4666901-11.455307,7.2829895
	c-3.5769196,2.9003601-6.9638824,6.0274353-10.1399994,9.361908
	C168.9644928,82.9440002,170.8577881,84.6752014,172.0832977,83.4956055z"/>
<path class="st1" d="M51.1290016,126.3352051c0.0566406-0.0181732,0.087822-0.0788116,0.0696487-0.1354523
	c-0.0025558-0.0079651-0.0060272-0.0155945-0.0103455-0.0227509c-0.5345001-0.7967987-1.5848007-1.423996-1.8381996-2.2035065
	c-0.3685989-1.1333923,0.0309982-3.633194,0.2375984-4.7877045c0.6166-3.4463959,3-5.2362976,5.1818008-7.6493073
	c0.1003571-0.1153107,0.0882339-0.2901459-0.0270844-0.3905182c-0.0693283-0.0603333-0.164093-0.0823212-0.2529144-0.0586853
	c-3.8600006,0.7559052-6.1675987,5.8025055-7.3284988,9.1048126c-0.5173988,1.4712067-1.3148003,4.2536011-0.3713989,5.7133942
	C47.7467003,127.3868103,49.7999001,126.9031067,51.1290016,126.3352051z"/>
<path class="st1" d="M356.0404053,65.9653015c2.2791138,0.7211914,4.7532043,0.6605988,6.1625061-0.635498
	c1.7000122-1.5632057,0.8493042-4.2324028-0.4938049-5.6964073c-0.9935913-1.0828018-2.7453918-1.5431976-3.4789124-2.8423996
	c-0.6594849-1.1681976-0.4718933-2.2176971-1.6292114-3.1027985c-0.1363831-0.1218796-0.3457642-0.1101227-0.4676514,0.0262756
	c-0.0350647,0.0392456-0.0602722,0.0862885-0.0735474,0.1372223c-0.3328857,1.3913193-0.2822876,2.8468552,0.1463928,4.2117004
	c0.5678101,1.4548035,1.8772888,1.8249969,2.8945923,2.8563004c0.1905212,0.124794,0.3581543,0.2814102,0.4956055,0.4629974
	c-1.5918274-1.3369827-3.7891541-1.6921005-5.7210999-0.9245987c-0.3651733-0.3158188-0.7708435-0.5814972-1.2062988-0.7900009
	c-0.6129456-0.3122025-1.362915-0.0684128-1.6751099,0.5445251c-0.0897827,0.1762619-0.1362915,0.3713684-0.1356812,0.5691757
	c0.1452026,1.6044846,1.0571594,3.039772,2.447998,3.8528023c-0.8375244,0.4874878-1.3671875,1.369812-1.403595,2.3381958
	c0.0170593,0.473053,0.4143372,0.8427277,0.8874207,0.8256836c0.070282-0.002533,0.1400146-0.0137177,0.2075806-0.0332794
	c0.9924011-0.3326111,1.6300049-1.2814026,2.6286926-1.6690979
	C355.7616882,66.0445557,355.8999634,66.000885,356.0404053,65.9653015z"/>
<path class="st1" d="M432.2278137,120.4712982c-0.3889771-1.0740509-1.2411804-1.9156647-2.3200073-2.2911987
	c-0.0209961-0.2655029-0.2140198-0.4856415-0.4744873-0.5411987c-0.1180115-0.0195312-0.2377319-0.0264282-0.3572083-0.0205994
	c-0.1703491,0.0149536-0.3308105,0.086319-0.4559937,0.2028046c-0.6563416-0.1673889-1.341217-0.1900787-2.0072021-0.0664978
	c-2.2411194,0.5214844-3.9887695,2.275116-4.502594,4.5180054c-0.3288879,1.0715027,1.3534851,1.4631958,1.6864014,0.4049988
	c0.0159912-0.0509949,0.0392151-0.0977936,0.0567017-0.1477966c0.1994019-0.0430298,0.3458252-0.2134094,0.3583984-0.4170074
	c0.0827942-1.0442963,1.6830139-2.0308075,2.5538025-2.4669037c0.0563965-0.0283051,0.115509-0.0529938,0.1736145-0.0789948
	c0.8791199-0.1941986,1.7955627-0.1314392,2.6400146,0.1808014c0.5589294,0.3012085,1.041626,0.7261963,1.4111938,1.2424927
	c0.1228943,0.164505,0.3558655,0.1982422,0.5203857,0.0753632c0.0233459-0.0174408,0.0445557-0.0375671,0.0632019-0.059967
	c0.2270508,0.1155548,0.5047913,0.0251617,0.6203613-0.201889
	C432.2466736,120.7009735,432.258606,120.5823822,432.2278137,120.4712982z"/>
<path class="st1" d="M431.1157227,128.7541962c0.2066345-0.1534119,0.3571777-0.3704224,0.4284973-0.6177063
	c0.0733032-0.0610046,0.1367188-0.1329803,0.1879883-0.2133942c0.0440674-0.0831604,0.0405884-0.1834717-0.0090942-0.2633972
	c-0.0644226-0.1138916-0.1585999-0.2081451-0.2723999-0.2727051c-0.0085144-0.0124969-0.0130005-0.0265045-0.0223999-0.0388031
	c-0.1900024-0.2714844-0.5641174-0.3375397-0.8356018-0.147522c-0.0505981,0.0354156-0.0954285,0.0784302-0.1329041,0.1275177
	c-0.2605286,0.0734558-0.507019,0.189743-0.7294006,0.344101c-0.3002319,0.2012177-0.3804932,0.6077118-0.1792603,0.9079285
	c0.0560913,0.083725,0.1307983,0.1533661,0.2182617,0.203476
	C430.1815186,129.0516968,430.7157288,129.0399933,431.1157227,128.7541962z"/>
</svg>
